<?xml version="1.0" standalone="no"?>
<!DOCTYPE svg PUBLIC "-//W3C//DTD SVG 20010904//EN"
 "http://www.w3.org/TR/2001/REC-SVG-20010904/DTD/svg10.dtd">
<svg version="1.0" xmlns="http://www.w3.org/2000/svg"
 width="1308.000000pt" height="507.000000pt" viewBox="0 0 1308.000000 507.000000"
 preserveAspectRatio="xMidYMid meet">

<g transform="translate(0.000000,507.000000) scale(0.100000,-0.100000)"
fill="#000000" stroke="none">
<path d="M5262 3418 l3 -773 83 -3 c53 -2 89 1 98 9 12 10 14 132 14 775 l0
764 -100 0 -100 0 2 -772z"/>
<path d="M2485 4137 c-11 -7 -61 -45 -111 -85 -95 -74 -178 -161 -256 -269
-46 -62 -145 -245 -151 -279 -2 -11 -12 -36 -21 -58 -10 -21 -15 -41 -12 -44
3 -3 1 -11 -5 -19 -6 -7 -8 -13 -4 -13 4 0 2 -7 -5 -15 -7 -9 -10 -18 -7 -22
4 -3 2 -12 -4 -19 -6 -8 -9 -20 -6 -29 4 -8 1 -17 -4 -21 -6 -3 -9 -15 -6 -25
3 -10 1 -22 -5 -25 -6 -4 -8 -22 -5 -40 3 -19 1 -36 -4 -39 -5 -4 -9 -66 -9
-140 0 -74 4 -136 9 -140 5 -3 7 -20 4 -39 -3 -18 -1 -36 5 -40 6 -3 8 -15 5
-25 -3 -10 0 -22 6 -25 5 -4 8 -13 4 -21 -3 -9 0 -21 6 -29 6 -7 8 -16 4 -19
-3 -4 0 -13 7 -22 7 -8 9 -15 5 -15 -4 0 -2 -6 4 -13 6 -8 8 -16 5 -19 -3 -3
2 -22 10 -42 8 -20 16 -40 16 -44 1 -4 8 -17 16 -29 8 -13 12 -23 9 -23 -11 0
71 -149 128 -234 33 -48 110 -137 169 -196 65 -65 105 -111 98 -115 -15 -9
-250 -9 -273 0 -9 4 -26 5 -37 2 -11 -3 -23 -1 -26 5 -3 5 -15 8 -25 5 -10 -3
-22 -1 -25 4 -3 6 -13 9 -22 8 -10 -1 -30 3 -45 9 -15 7 -31 11 -35 11 -4 -1
-10 0 -14 1 -5 1 -12 4 -18 5 -5 1 -12 4 -15 5 -3 1 -8 3 -12 4 -5 1 -18 7
-30 14 -13 7 -23 11 -23 8 0 -9 -207 107 -265 149 -155 111 -286 263 -376 437
-27 54 -50 101 -50 105 -1 5 -6 17 -12 28 -6 11 -12 26 -13 33 -1 8 -6 21 -10
30 -4 9 -8 20 -8 24 -1 3 -4 9 -8 13 -4 4 -4 13 -2 20 3 7 1 16 -5 19 -6 4 -8
13 -5 20 3 8 1 17 -5 20 -6 4 -8 13 -4 21 3 8 2 23 -2 33 -5 9 -7 27 -6 39 1
13 -1 28 -5 34 -9 15 -8 259 1 282 4 9 5 26 2 37 -7 27 35 56 74 51 16 -1 33
1 40 4 14 9 229 9 251 0 9 -4 21 -4 27 -1 5 4 34 -19 64 -50 30 -32 63 -58 73
-59 11 -1 27 -6 37 -10 9 -4 23 -2 31 4 7 6 16 8 19 4 4 -3 13 0 22 7 8 7 15
9 15 4 0 -11 50 37 62 60 13 24 17 126 6 133 -5 2 -6 8 -4 12 7 11 -60 74 -81
76 -10 1 -26 6 -35 10 -10 4 -26 4 -35 0 -10 -4 -26 -9 -36 -10 -10 -1 -33
-17 -52 -35 -29 -28 -43 -34 -81 -35 -25 0 -48 3 -50 7 -8 12 -222 10 -229 -2
-4 -6 -21 -8 -40 -4 -19 3 -40 2 -47 -2 -7 -5 -30 -9 -50 -9 -36 -1 -82 -30
-73 -46 3 -4 0 -11 -6 -15 -6 -3 -9 -19 -5 -35 3 -16 1 -31 -6 -35 -6 -4 -8
-23 -4 -50 3 -24 1 -46 -4 -49 -13 -8 -13 -212 0 -220 6 -4 7 -23 4 -44 -4
-23 -2 -41 4 -45 6 -4 9 -13 5 -21 -3 -8 -2 -23 2 -32 5 -10 7 -25 6 -35 -1
-9 3 -19 9 -23 6 -3 8 -10 5 -15 -3 -5 0 -21 7 -37 6 -15 10 -31 10 -36 -1 -4
4 -22 11 -40 8 -17 14 -36 15 -40 0 -4 8 -19 16 -33 9 -13 14 -24 11 -24 -3 0
10 -31 29 -68 135 -268 378 -505 648 -632 47 -22 94 -41 104 -43 11 -1 25 -6
32 -10 6 -5 12 -5 12 -1 0 3 7 1 15 -6 8 -7 15 -9 15 -5 0 4 7 2 15 -5 8 -6
19 -9 24 -6 5 4 13 1 16 -5 4 -5 13 -8 21 -5 7 3 16 1 20 -5 3 -6 12 -8 20 -5
7 3 16 1 20 -5 3 -6 16 -9 27 -8 12 1 30 -1 40 -6 10 -4 31 -5 47 -2 16 4 32
2 35 -3 9 -15 201 -12 225 2 10 7 22 9 26 5 20 -20 -130 -172 -248 -250 -74
-49 -215 -126 -235 -128 -5 -1 -17 -6 -28 -12 -11 -6 -23 -12 -27 -13 -5 -1
-10 -3 -13 -4 -3 -1 -9 -4 -15 -5 -5 -1 -13 -4 -17 -5 -5 -1 -11 -2 -15 -1 -4
0 -20 -4 -35 -11 -15 -6 -35 -10 -45 -9 -9 1 -19 -2 -22 -8 -3 -5 -15 -7 -25
-4 -10 3 -22 0 -25 -5 -3 -6 -15 -8 -26 -5 -11 3 -28 2 -37 -2 -23 -9 -263 -9
-286 0 -9 4 -26 5 -37 2 -11 -3 -23 -1 -26 5 -3 5 -15 8 -25 5 -10 -3 -22 -1
-25 5 -3 5 -15 8 -25 5 -10 -3 -22 -1 -25 5 -3 5 -12 7 -19 4 -7 -2 -16 -2
-20 2 -4 4 -11 8 -16 8 -5 1 -11 3 -14 4 -3 1 -9 4 -15 5 -5 1 -12 4 -15 5 -3
1 -8 3 -12 4 -5 1 -56 24 -114 52 -129 62 -237 134 -324 216 -70 65 -165 184
-165 207 0 23 78 118 163 196 84 78 136 110 151 94 13 -12 83 -12 91 1 4 6 11
8 16 4 6 -3 28 12 49 35 66 69 66 145 -1 212 -22 22 -44 37 -49 34 -5 -3 -11
-1 -15 5 -9 15 -72 12 -103 -4 -28 -15 -85 -69 -83 -80 1 -3 0 -9 0 -13 -1 -5
-2 -26 -3 -49 -1 -39 -6 -46 -98 -128 -119 -106 -258 -274 -258 -312 0 -7 34
-58 75 -112 118 -157 300 -309 478 -398 48 -24 87 -41 87 -38 0 4 6 1 14 -5
19 -16 127 -52 136 -46 5 3 12 0 15 -6 4 -5 13 -8 21 -5 7 3 16 0 20 -5 3 -6
15 -9 25 -6 10 3 22 1 25 -5 3 -5 17 -7 29 -4 13 3 27 1 31 -5 4 -7 23 -9 50
-5 24 3 46 1 49 -4 8 -13 172 -13 180 0 4 6 25 8 54 4 31 -4 51 -2 55 5 4 6
19 8 35 5 16 -3 31 -1 35 4 3 6 15 8 25 5 10 -3 22 0 25 6 4 5 13 8 20 5 8 -3
17 0 21 5 3 6 11 9 16 5 5 -3 16 0 24 6 8 7 15 9 15 5 0 -4 7 -2 15 5 8 7 15
9 15 5 0 -4 7 -2 15 5 8 7 15 9 15 5 0 -4 7 -2 15 5 8 7 15 9 15 5 0 -4 11 0
25 9 14 9 25 14 25 11 0 -12 166 81 238 133 157 112 254 213 393 407 152 213
349 371 569 454 41 15 84 32 95 36 11 4 33 9 49 11 16 2 34 9 41 14 7 5 15 7
18 4 3 -4 14 -3 24 1 10 4 28 7 40 6 13 -1 27 1 33 4 14 9 300 8 323 0 9 -4
26 -5 37 -2 11 3 23 1 26 -4 3 -6 13 -9 22 -8 10 1 24 0 32 -4 17 -6 160 -48
175 -51 25 -5 187 -93 255 -139 81 -55 278 -245 303 -294 16 -30 16 -30 -47
-109 -60 -74 -150 -160 -206 -197 -25 -16 -65 -18 -88 -3 -7 4 -19 3 -26 -3
-7 -6 -16 -8 -19 -4 -4 3 -13 1 -20 -5 -8 -7 -16 -9 -19 -7 -8 8 -79 -75 -73
-85 3 -5 1 -11 -5 -15 -5 -3 -10 -19 -10 -35 0 -16 5 -32 10 -35 6 -4 8 -10 5
-15 -3 -5 11 -27 31 -50 39 -43 100 -68 131 -55 10 5 20 9 23 10 73 25 107 71
104 142 -2 42 0 44 84 115 84 72 205 207 251 281 22 36 22 39 7 72 -48 100
-248 306 -388 398 -83 55 -208 122 -208 112 0 -3 -11 2 -25 11 -14 9 -25 13
-25 9 0 -4 -7 -2 -15 5 -8 7 -15 9 -15 5 0 -4 -7 -2 -15 5 -8 7 -15 9 -15 5 0
-4 -6 -3 -12 3 -7 6 -17 11 -23 12 -5 1 -21 7 -35 12 -14 5 -38 11 -55 13 -16
1 -38 6 -48 10 -10 4 -21 5 -24 1 -3 -3 -12 -1 -20 5 -7 6 -26 9 -43 6 -16 -4
-31 -3 -34 2 -6 9 -292 9 -301 -1 -4 -4 -20 -5 -35 -2 -15 4 -30 1 -34 -4 -3
-6 -15 -8 -25 -5 -10 3 -22 0 -25 -6 -4 -5 -13 -8 -21 -4 -9 3 -21 0 -29 -6
-7 -6 -15 -8 -18 -6 -3 3 -18 0 -34 -6 -16 -7 -32 -13 -36 -14 -5 -2 -10 -4
-13 -5 -3 -1 -8 -3 -12 -4 -5 -1 -14 -5 -20 -9 -7 -5 -13 -5 -13 -1 0 3 -11
-1 -25 -10 -14 -9 -25 -14 -25 -11 0 3 -15 -2 -32 -12 -18 -9 -38 -18 -44 -19
-20 -3 -146 -80 -214 -130 -36 -26 -106 -87 -157 -137 l-91 -89 -4 133 c-2 74
1 140 5 146 5 7 6 24 3 37 -3 14 -1 28 5 32 6 3 9 15 6 25 -3 10 -1 22 5 25 5
3 7 12 4 20 -3 7 -1 16 5 20 6 3 8 12 5 19 -2 7 -2 16 2 20 4 4 7 10 8 13 0 4
4 15 8 24 4 9 9 22 10 30 1 7 7 22 13 33 6 11 11 22 10 25 0 3 21 47 48 99 99
191 240 350 413 465 89 60 234 135 273 142 9 2 29 9 45 15 16 7 34 13 39 13
43 6 96 19 100 26 2 4 15 5 29 3 13 -3 27 0 30 6 4 6 20 8 36 4 16 -3 37 -2
47 2 24 10 186 11 201 1 7 -4 27 -7 45 -5 69 4 92 -20 87 -93 -1 -21 2 -43 7
-50 11 -18 12 -178 1 -185 -5 -3 -8 -22 -7 -44 3 -35 -1 -43 -55 -93 -32 -30
-56 -59 -52 -64 3 -6 2 -13 -4 -17 -14 -9 -12 -60 4 -98 14 -36 72 -90 86 -82
5 3 11 1 15 -5 3 -5 21 -10 40 -10 19 0 37 5 40 10 4 6 10 8 15 5 12 -7 68 42
85 76 18 33 19 92 4 122 -6 12 -28 39 -47 60 -29 30 -34 41 -26 55 11 19 13
340 1 359 -4 6 -4 18 -1 27 3 9 3 24 -1 34 -4 9 -9 26 -10 36 -3 25 -44 59
-63 51 -8 -3 -21 0 -28 6 -8 6 -23 9 -34 6 -11 -3 -23 0 -26 5 -4 6 -27 8 -60
4 -31 -4 -55 -2 -59 4 -3 5 -30 10 -60 10 -30 0 -57 -5 -60 -10 -4 -6 -28 -8
-59 -4 -34 4 -56 3 -60 -4 -4 -6 -13 -9 -21 -5 -8 3 -23 2 -32 -2 -10 -5 -25
-7 -35 -6 -9 1 -19 -3 -22 -8 -4 -6 -13 -8 -20 -5 -8 3 -17 0 -21 -5 -3 -6
-11 -9 -16 -5 -5 3 -16 0 -24 -6 -8 -7 -15 -9 -15 -5 0 4 -6 2 -13 -4 -8 -6
-16 -8 -20 -5 -3 3 -16 0 -29 -7 -12 -7 -30 -14 -39 -16 -29 -5 -143 -60 -214
-103 -213 -131 -392 -321 -510 -542 -50 -95 -108 -244 -100 -258 3 -5 0 -12
-6 -15 -5 -4 -8 -13 -5 -21 3 -7 0 -16 -5 -20 -6 -3 -9 -15 -6 -25 3 -10 1
-22 -5 -25 -5 -3 -8 -15 -5 -25 3 -10 1 -22 -5 -25 -6 -4 -8 -22 -4 -42 3 -20
1 -41 -4 -47 -5 -6 -11 -67 -12 -135 l-3 -123 -61 51 c-111 92 -235 275 -303
449 -54 138 -53 135 -57 162 -2 13 -6 31 -10 40 -4 9 -6 23 -5 33 1 9 -3 19
-8 22 -6 4 -8 13 -4 21 3 8 2 23 -2 33 -9 22 -9 292 0 315 4 9 5 24 2 32 -4 8
-2 17 4 21 5 3 9 13 8 22 -1 10 1 24 5 33 4 9 8 27 10 41 1 13 5 28 8 33 6 11
29 80 32 98 1 7 10 27 19 44 10 18 16 34 15 35 -4 5 72 139 115 201 64 96 150
189 229 250 41 31 78 57 82 57 27 0 183 -144 258 -238 38 -48 47 -66 39 -76
-6 -7 -8 -16 -4 -19 3 -4 0 -13 -6 -21 -7 -9 -9 -21 -5 -28 5 -7 9 -20 9 -29
2 -25 31 -66 61 -85 31 -21 120 -25 156 -7 28 14 80 74 77 89 -1 5 1 17 6 27
13 31 -13 92 -55 131 -23 20 -45 34 -50 31 -5 -3 -11 -1 -15 5 -3 5 -25 10
-48 10 -40 1 -45 5 -122 92 -92 105 -265 248 -298 247 -12 0 -31 -6 -42 -12z
m508 -464 c13 -15 13 -21 3 -35 -7 -10 -23 -18 -36 -18 -13 0 -29 8 -36 18
-10 14 -10 20 3 35 9 9 24 17 33 17 9 0 24 -8 33 -17z m-1371 -238 c12 -16 10
-23 -14 -45 l-22 -20 -25 25 -25 24 24 26 c23 25 38 23 62 -10z m2493 -620 c0
-27 -3 -30 -30 -30 -21 0 -31 5 -33 18 -6 33 6 49 35 45 24 -3 28 -8 28 -33z
m-3311 -497 c29 -41 -26 -67 -66 -31 -17 15 -17 17 -2 35 23 24 49 23 68 -4z
m3519 -880 c3 -10 -2 -27 -11 -38 -16 -19 -19 -20 -39 -5 -27 19 -29 42 -7 66
13 14 20 16 34 6 10 -6 21 -19 23 -29z"/>
<path d="M6980 3945 l0 -134 -87 -3 -88 -3 0 -80 0 -80 88 -3 87 -3 0 -379 c0
-252 3 -381 10 -385 6 -4 8 -16 5 -26 -14 -42 81 -182 122 -184 5 -1 18 -7 31
-14 13 -7 30 -10 37 -7 8 3 17 1 20 -4 8 -13 172 -13 180 0 4 6 10 8 15 5 19
-11 31 26 28 87 l-3 63 -76 1 c-107 2 -159 36 -159 104 0 10 -4 22 -10 25 -6
4 -10 135 -10 360 l0 354 118 3 117 3 0 80 0 80 -117 3 -118 3 0 134 0 135
-95 0 -95 0 0 -135z"/>
<path d="M6085 3820 c-3 -5 -12 -7 -20 -3 -9 3 -22 0 -30 -7 -8 -7 -15 -9 -15
-5 0 4 -7 2 -15 -5 -8 -7 -15 -9 -15 -5 0 4 -7 2 -15 -5 -8 -7 -15 -10 -15 -6
0 19 -114 -56 -171 -113 -64 -64 -128 -167 -133 -215 -1 -12 -6 -27 -10 -34
-4 -7 -5 -16 -1 -21 3 -5 0 -13 -6 -17 -6 -3 -9 -19 -5 -35 3 -15 1 -31 -4
-34 -6 -3 -10 -44 -10 -90 0 -46 4 -87 10 -90 5 -3 7 -19 4 -34 -4 -16 -1 -32
5 -35 6 -4 9 -12 6 -17 -4 -5 -3 -15 2 -21 4 -7 8 -16 9 -20 1 -5 2 -9 3 -10
2 -2 4 -14 7 -27 16 -89 146 -235 256 -289 38 -18 72 -31 77 -27 5 3 13 0 16
-6 4 -5 13 -8 21 -5 7 3 16 0 20 -5 3 -6 17 -8 29 -5 13 3 27 2 30 -4 8 -13
132 -13 140 0 3 5 12 7 20 3 8 -3 23 -2 33 2 9 4 28 9 41 11 47 6 152 66 212
121 49 46 113 131 114 153 1 3 6 15 13 28 7 12 10 22 6 22 -3 0 -1 7 6 15 7 8
9 15 5 15 -4 0 -2 7 5 15 7 9 10 18 7 22 -4 3 -2 12 4 19 6 8 9 20 6 29 -4 8
-3 16 1 19 11 6 12 235 2 241 -4 3 -6 13 -3 23 2 10 -1 31 -8 47 -7 17 -11 34
-10 39 1 4 -5 19 -14 32 -8 13 -13 24 -9 24 14 0 -52 99 -100 148 -50 52 -126
111 -149 117 -7 1 -29 10 -51 19 -21 9 -41 15 -44 12 -3 -3 -11 -1 -18 5 -8 6
-20 9 -29 6 -8 -4 -17 -2 -20 3 -4 6 -46 10 -95 10 -49 0 -91 -4 -95 -10z
m164 -164 c7 -5 15 -6 17 -3 3 3 36 -10 73 -28 82 -40 142 -104 171 -184 11
-31 23 -63 27 -71 3 -8 5 -25 4 -37 -1 -13 1 -28 5 -35 11 -17 11 -131 1 -145
-5 -7 -7 -22 -4 -33 3 -11 1 -23 -4 -26 -5 -3 -9 -13 -9 -23 0 -32 -70 -159
-102 -186 -30 -25 -122 -77 -143 -80 -5 -1 -13 -3 -17 -4 -5 -1 -44 -2 -88 -2
-44 0 -83 1 -87 2 -5 1 -12 3 -18 4 -27 4 -118 59 -150 90 -29 30 -84 119 -91
148 -1 4 -3 10 -4 15 -1 4 -3 12 -5 17 -1 6 -3 15 -5 20 -1 6 -1 20 0 33 1 13
-3 28 -8 35 -13 15 -13 108 0 124 5 7 8 22 7 35 -2 13 0 29 5 36 4 7 6 16 3
19 -11 11 76 164 111 194 41 36 139 85 164 81 9 -2 18 1 21 5 6 10 109 9 126
-1z"/>
<path d="M9105 3820 c-3 -5 -12 -7 -20 -3 -9 3 -21 0 -29 -6 -7 -6 -16 -8 -19
-4 -4 3 -14 0 -23 -8 -10 -8 -19 -13 -21 -11 -1 1 -4 2 -5 1 -2 0 -11 -2 -20
-4 -32 -6 -87 -46 -127 -92 -22 -25 -40 -48 -39 -52 1 -3 -4 -16 -11 -29 -7
-13 -10 -30 -7 -37 3 -8 1 -17 -4 -20 -13 -8 -13 -92 0 -100 6 -4 8 -11 4 -16
-3 -5 0 -17 8 -26 7 -9 12 -18 11 -20 -21 -28 127 -164 192 -176 11 -2 33 -9
49 -16 16 -6 31 -9 34 -6 3 2 11 0 18 -5 6 -6 28 -12 46 -14 19 -2 40 -6 47
-10 7 -5 15 -5 18 -2 3 3 12 1 20 -6 7 -6 16 -8 20 -5 3 4 11 3 17 -2 9 -7
103 -34 126 -36 17 -1 73 -52 87 -78 23 -46 21 -88 -7 -143 -18 -34 -39 -56
-72 -75 -25 -15 -49 -25 -51 -22 -3 3 -12 1 -19 -3 -7 -4 -28 -7 -46 -5 -18 1
-40 -3 -48 -9 -11 -10 -17 -10 -28 0 -8 6 -30 11 -48 10 -18 -1 -37 -1 -43 1
-5 1 -14 3 -20 4 -30 4 -116 58 -134 83 -22 32 -45 82 -43 95 1 4 -36 7 -83 7
-82 0 -85 -1 -91 -25 -3 -14 -1 -31 5 -39 6 -7 8 -15 5 -19 -9 -9 30 -88 61
-125 28 -33 107 -93 128 -96 7 -1 18 -5 25 -9 6 -5 12 -5 12 -1 0 3 7 1 15 -6
8 -7 15 -9 15 -5 0 4 7 2 15 -5 8 -6 19 -9 24 -6 5 4 13 1 17 -5 3 -6 19 -9
35 -5 15 3 31 1 34 -4 8 -13 152 -13 160 0 4 6 21 8 40 4 20 -3 35 -1 40 5 3
6 11 9 16 5 5 -3 15 -1 22 4 7 6 15 11 20 11 4 1 8 1 10 2 1 0 13 3 27 5 33 6
115 60 145 96 51 60 72 125 69 213 -1 44 -3 80 -4 80 -1 0 -3 10 -4 22 -3 29
-49 94 -84 119 -36 26 -112 65 -112 58 0 -4 -7 -1 -15 6 -8 7 -15 9 -15 5 0
-4 -7 -2 -15 5 -8 7 -15 9 -15 5 0 -4 -7 -2 -15 5 -8 6 -19 9 -24 6 -5 -4 -13
-1 -16 5 -4 5 -13 8 -21 5 -7 -3 -16 -1 -20 5 -3 6 -12 8 -20 5 -7 -3 -16 0
-20 5 -3 6 -15 9 -25 6 -10 -3 -22 -1 -25 5 -3 5 -12 7 -20 4 -7 -3 -16 -1
-20 5 -3 6 -12 8 -20 5 -7 -3 -16 -1 -19 5 -4 5 -12 9 -18 7 -25 -4 -119 46
-145 78 -25 30 -27 39 -22 87 3 30 14 66 24 81 19 30 100 72 129 67 10 -1 24
2 30 6 14 11 104 10 128 -1 10 -4 23 -6 30 -4 8 1 40 -10 71 -25 49 -24 60
-35 81 -80 14 -29 27 -60 31 -69 4 -15 18 -18 85 -18 74 0 106 10 81 25 -5 3
-7 17 -4 30 3 12 1 26 -5 30 -6 3 -9 10 -6 15 3 5 0 20 -7 32 -7 13 -11 26
-10 30 1 4 -22 32 -50 63 -50 55 -128 104 -172 109 -12 1 -27 6 -34 10 -7 4
-21 5 -31 1 -11 -3 -22 -1 -26 5 -8 13 -202 14 -210 0z"/>
<path d="M7589 3806 c-3 -4 -2 -841 2 -841 0 0 2 -14 3 -31 11 -112 155 -278
248 -288 13 -1 29 -6 36 -10 7 -4 21 -5 31 -1 11 3 22 1 26 -5 8 -12 122 -14
129 -1 3 5 14 7 24 4 10 -2 31 1 47 7 17 6 30 10 30 9 0 -1 20 8 45 21 64 32
105 66 140 113 l30 41 0 -80 c0 -49 5 -85 12 -92 14 -14 174 -17 182 -3 4 5 3
268 -1 585 l-6 576 -82 0 c-58 0 -86 -4 -94 -14 -8 -10 -11 -116 -11 -380 1
-201 -1 -370 -5 -376 -3 -5 -4 -14 0 -19 3 -5 1 -12 -5 -16 -6 -4 -8 -10 -6
-13 2 -4 -12 -32 -32 -62 -26 -38 -56 -66 -97 -91 -33 -20 -63 -35 -67 -32 -5
2 -13 1 -19 -2 -12 -8 -163 -9 -176 -2 -4 2 -25 10 -45 16 -62 20 -111 88
-144 200 -3 8 -6 188 -7 400 l-2 386 -90 3 c-50 1 -93 1 -96 -2z"/>
<path d="M6515 2380 c-3 -5 -19 -7 -35 -3 -17 3 -36 0 -43 -6 -8 -6 -17 -8
-20 -4 -4 3 -13 0 -22 -7 -8 -7 -15 -9 -15 -5 0 4 -7 2 -15 -5 -8 -7 -15 -9
-15 -5 0 4 -11 0 -25 -9 -14 -9 -25 -14 -25 -11 0 13 -89 -57 -138 -109 -51
-54 -110 -159 -116 -208 -2 -13 -7 -31 -11 -40 -4 -9 -4 -22 0 -28 3 -5 3 -16
-1 -22 -10 -16 -12 -278 -2 -284 4 -3 5 -11 2 -19 -3 -8 -2 -20 2 -27 4 -7 9
-23 10 -36 12 -107 185 -309 281 -327 10 -2 19 -4 21 -5 1 -2 7 -4 12 -5 6 -1
12 -4 15 -5 3 -1 8 -3 13 -5 4 -1 14 -5 23 -9 9 -4 20 -6 25 -5 5 1 11 0 14
-1 13 -6 232 -5 236 2 3 4 10 5 18 2 7 -3 23 -1 37 4 13 5 28 10 32 10 4 0 19
8 33 16 13 9 24 14 24 11 0 -13 88 55 127 98 40 44 101 147 86 147 -4 0 -2 5
4 11 6 6 9 18 6 25 -4 10 -27 14 -87 14 l-81 0 -27 -50 c-33 -59 -89 -103
-155 -119 -26 -7 -55 -16 -63 -20 -18 -9 -109 -6 -132 4 -10 4 -23 5 -30 3
-19 -7 -140 56 -170 88 -23 25 -54 84 -83 159 -5 11 -7 28 -6 38 1 10 -2 24
-8 31 -6 8 -9 21 -5 30 6 14 48 16 429 16 326 0 425 3 433 13 13 16 15 194 2
202 -6 3 -7 17 -4 30 3 12 1 26 -5 30 -6 3 -9 11 -5 16 3 5 0 16 -6 24 -7 8
-9 15 -5 15 4 0 2 7 -5 15 -7 8 -9 15 -6 15 4 0 1 10 -6 23 -7 12 -12 25 -13
28 -1 19 -72 113 -108 145 -42 36 -137 90 -137 78 0 -4 -7 -1 -15 6 -8 7 -15
9 -15 5 0 -4 -7 -2 -15 5 -8 6 -19 9 -24 6 -5 -4 -13 -1 -16 5 -5 6 -20 8 -40
5 -19 -4 -36 -2 -40 4 -8 13 -82 13 -90 0z m125 -163 c8 -3 32 -11 52 -17 62
-19 111 -62 148 -131 19 -35 33 -69 32 -76 -1 -6 2 -14 7 -17 5 -3 7 -15 4
-26 -3 -11 -1 -26 5 -33 6 -7 9 -23 5 -35 l-5 -22 -338 0 -338 0 -5 22 c-4 12
-1 28 5 35 5 7 8 19 5 27 -3 7 -1 18 3 22 5 5 11 18 12 30 5 29 57 114 87 142
31 29 121 77 138 74 6 -2 14 1 16 5 5 9 142 8 167 0z"/>
<path d="M8735 2380 c-4 -6 -23 -7 -44 -4 -24 4 -41 2 -45 -5 -4 -6 -12 -9
-17 -5 -5 3 -16 0 -24 -6 -8 -7 -15 -9 -15 -5 0 4 -7 2 -15 -5 -8 -7 -15 -10
-15 -6 0 15 -107 -50 -153 -92 -49 -46 -107 -122 -111 -145 -1 -7 -8 -22 -14
-34 -7 -13 -10 -23 -6 -23 3 0 1 -7 -6 -15 -7 -8 -9 -15 -5 -15 4 0 2 -7 -5
-15 -7 -9 -10 -18 -7 -22 4 -3 2 -12 -4 -20 -6 -7 -9 -22 -6 -33 3 -11 2 -22
-3 -25 -10 -6 -9 -244 1 -251 5 -3 6 -16 3 -29 -3 -12 -1 -26 5 -30 6 -3 9
-11 6 -16 -4 -5 -3 -15 2 -21 4 -7 8 -16 9 -20 1 -5 2 -9 3 -10 2 -2 5 -14 7
-28 16 -86 180 -260 261 -275 10 -2 19 -4 21 -5 1 -2 7 -4 12 -5 6 -1 12 -4
15 -5 3 -1 8 -3 13 -5 4 -1 14 -5 23 -9 9 -4 20 -6 25 -5 5 1 11 0 14 -1 13
-6 232 -5 236 2 3 4 11 5 19 1 9 -3 22 0 30 7 8 7 15 9 15 5 0 -4 7 -2 15 5 8
7 15 9 15 5 0 -4 7 -2 15 5 8 7 15 10 15 6 0 -15 69 31 123 82 56 54 114 139
120 178 1 10 6 25 10 32 6 9 -13 12 -86 12 l-95 0 -13 -32 c-19 -46 -66 -96
-113 -121 -23 -11 -44 -22 -48 -23 -5 -1 -11 -3 -15 -4 -5 -1 -18 -1 -30 -1
-11 1 -24 -2 -27 -7 -6 -10 -102 -8 -128 3 -10 4 -23 5 -30 3 -21 -7 -143 58
-172 92 -24 29 -67 103 -72 123 -1 4 -3 10 -4 15 -1 4 -3 12 -5 17 -1 6 -3 15
-5 20 -1 6 -1 22 0 37 1 14 -3 29 -9 33 -36 22 19 25 418 25 277 0 432 4 436
10 10 16 14 220 4 225 -4 3 -6 12 -3 20 3 8 2 20 -2 27 -4 7 -9 23 -10 37 -6
49 -68 156 -124 212 -49 50 -160 121 -160 103 0 -4 -7 -1 -15 6 -8 7 -15 9
-15 5 0 -4 -7 -2 -15 5 -8 6 -19 9 -24 6 -5 -4 -13 -1 -16 5 -5 6 -20 8 -40 5
-19 -4 -36 -2 -40 4 -8 13 -72 13 -80 0z m125 -161 c3 -1 10 -3 15 -3 6 -1 36
-16 68 -34 61 -34 109 -90 128 -150 6 -20 15 -41 19 -46 5 -5 6 -15 3 -22 -3
-8 -1 -20 5 -27 5 -6 7 -27 5 -44 l-5 -33 -339 0 c-224 0 -340 4 -344 10 -4 6
-1 17 5 25 7 8 10 24 7 35 -3 11 -1 23 4 26 5 3 9 11 7 17 -3 19 52 119 86
155 32 35 122 88 143 84 6 -2 14 1 16 5 4 7 162 9 177 2z"/>
<path d="M10005 2379 c-4 -6 -19 -7 -36 -4 -16 4 -34 3 -41 -1 -7 -4 -22 -9
-34 -10 -55 -6 -157 -75 -205 -138 l-29 -40 0 82 0 82 -95 0 -95 0 0 -575 0
-576 93 3 92 3 2 376 c1 206 4 382 7 390 42 141 91 190 236 236 23 7 147 6
160 -2 6 -4 14 -5 17 -2 3 3 27 -8 55 -25 56 -35 91 -82 108 -148 7 -25 14
-51 16 -59 3 -8 6 -184 7 -390 l2 -376 95 0 95 0 3 400 c1 220 -1 407 -4 415
-4 8 -6 22 -5 32 1 9 -3 19 -9 23 -6 3 -8 11 -4 16 3 5 0 16 -6 24 -7 8 -9 15
-5 15 4 0 0 11 -9 25 -9 14 -14 25 -11 25 14 0 -58 91 -94 119 -46 36 -127 75
-140 66 -5 -3 -13 0 -16 6 -5 6 -20 8 -40 5 -19 -4 -36 -2 -40 4 -8 13 -62 13
-70 -1z"/>
<path d="M12345 2379 c-4 -6 -19 -7 -36 -4 -16 4 -34 3 -40 -1 -7 -4 -25 -8
-40 -9 -94 -8 -258 -135 -313 -243 -14 -29 -24 -52 -21 -52 3 0 -2 -11 -11
-25 -8 -13 -13 -29 -10 -34 4 -5 1 -13 -5 -16 -5 -4 -8 -13 -5 -21 3 -7 0 -16
-5 -20 -6 -3 -8 -19 -5 -35 3 -15 1 -31 -4 -34 -13 -8 -13 -212 0 -220 5 -3 7
-12 3 -20 -3 -8 -2 -23 2 -32 5 -10 9 -22 10 -28 1 -5 3 -12 4 -15 1 -3 4 -17
6 -31 6 -45 62 -144 113 -200 49 -53 138 -115 177 -122 11 -2 33 -9 49 -16 16
-6 35 -10 42 -7 8 3 15 2 18 -2 6 -10 217 -9 233 1 6 4 18 4 26 1 8 -3 18 0
22 5 3 6 10 9 15 6 5 -3 20 0 32 7 13 6 29 13 37 14 31 5 126 81 161 129 40
53 75 115 65 115 -4 0 1 10 9 22 9 12 16 26 16 30 0 5 -42 8 -94 8 -89 0 -94
-1 -100 -23 -8 -35 -74 -105 -120 -129 -22 -12 -44 -22 -48 -23 -3 0 -9 -3
-13 -7 -4 -4 -13 -4 -21 -1 -8 3 -22 2 -31 -2 -25 -10 -116 -13 -128 -4 -6 5
-27 10 -46 12 -56 5 -143 60 -178 111 -17 25 -31 47 -31 49 0 3 -8 22 -17 43
-9 22 -17 44 -18 49 -1 6 -3 12 -4 15 -1 3 -3 24 -4 47 l-2 43 430 2 430 3 0
22 c0 11 3 25 8 29 11 11 9 92 -3 99 -6 4 -7 23 -4 44 4 23 2 41 -4 45 -6 4
-9 13 -5 21 3 9 0 22 -7 30 -7 8 -9 15 -5 15 4 0 2 7 -5 15 -7 8 -9 15 -5 15
4 0 2 7 -5 15 -7 8 -10 15 -6 15 14 0 -48 105 -87 147 -41 45 -118 103 -140
107 -7 1 -22 8 -35 14 -12 7 -27 10 -32 7 -5 -3 -12 0 -15 6 -4 5 -13 8 -21 5
-7 -3 -16 0 -20 5 -4 6 -20 8 -39 5 -19 -4 -36 -2 -40 4 -8 13 -72 13 -80 -1z
m125 -160 c3 -1 10 -3 15 -4 25 -4 113 -56 137 -82 31 -33 83 -141 80 -165 -2
-9 1 -19 5 -21 5 -3 7 -24 5 -46 l-4 -41 -337 0 -337 0 2 43 c2 23 4 44 5 47
1 3 3 10 4 15 2 6 4 13 5 18 1 4 3 10 4 15 1 4 15 32 33 63 37 67 90 113 153
135 25 9 51 19 58 22 12 6 158 7 172 1z"/>
<path d="M5815 2370 c-4 -6 -15 -8 -25 -5 -67 21 -262 -128 -274 -210 -1 -8
-5 -18 -9 -21 -4 -4 -7 43 -7 104 l0 112 -95 0 -95 0 2 -572 3 -573 93 -3 92
-3 0 325 c0 219 3 327 11 331 6 4 10 19 9 33 -1 15 -1 32 0 37 2 6 4 15 5 20
2 6 4 13 5 18 1 4 3 10 4 15 4 16 40 79 64 111 22 28 123 96 144 96 3 0 9 3
13 7 4 4 13 4 21 1 8 -3 22 -2 32 2 23 10 113 12 119 3 15 -25 23 3 23 83 0
76 -2 90 -15 86 -8 -4 -17 -2 -20 3 -8 13 -92 13 -100 0z"/>
<path d="M7102 2328 c6 -13 13 -32 15 -43 2 -10 10 -30 18 -42 9 -13 13 -23
10 -23 -3 0 0 -10 7 -22 6 -13 13 -30 15 -39 1 -9 11 -37 22 -63 11 -25 20
-47 19 -49 -1 -1 5 -13 12 -27 8 -14 15 -34 17 -45 2 -10 10 -30 18 -42 9 -13
13 -23 10 -23 -3 0 0 -10 7 -22 6 -13 13 -30 15 -39 1 -9 12 -38 24 -65 12
-27 24 -56 25 -65 2 -9 12 -37 23 -63 11 -25 20 -47 19 -49 -1 -1 5 -13 12
-27 8 -14 15 -34 17 -45 2 -10 10 -30 18 -42 9 -13 13 -23 10 -23 -3 0 0 -10
7 -22 6 -13 13 -30 15 -39 1 -9 12 -38 24 -65 12 -27 24 -57 26 -67 1 -10 10
-31 18 -48 l16 -30 117 3 c69 2 117 7 117 13 1 6 7 21 15 35 7 14 13 26 12 27
-1 2 8 24 19 49 11 26 21 54 22 63 2 9 8 25 14 36 6 11 12 23 12 27 1 4 11 29
22 54 11 26 21 54 22 63 2 9 8 25 14 36 6 11 12 23 12 27 1 4 11 29 22 54 11
26 21 54 22 63 2 9 8 25 14 36 6 11 12 23 12 27 1 4 11 29 22 54 11 26 21 54
22 63 2 9 9 27 17 41 7 14 13 26 12 27 -1 2 8 24 19 49 11 26 21 54 22 63 2 9
9 27 17 41 7 14 13 26 12 27 -1 2 8 24 19 49 11 26 21 54 22 63 2 9 9 26 15
39 l13 22 -105 0 -106 0 -7 -27 c-4 -16 -8 -30 -8 -33 0 -3 -6 -15 -13 -27 -6
-12 -13 -30 -15 -40 -2 -10 -8 -28 -15 -40 -7 -12 -13 -30 -15 -40 -2 -10 -8
-28 -15 -40 -7 -12 -13 -30 -15 -40 -2 -10 -9 -28 -15 -40 -7 -13 -10 -23 -7
-23 3 0 -1 -10 -10 -23 -8 -12 -16 -32 -18 -42 -2 -11 -8 -30 -15 -42 -7 -12
-13 -30 -15 -40 -2 -10 -8 -28 -15 -40 -7 -12 -13 -30 -15 -40 -2 -10 -8 -28
-15 -40 -7 -12 -13 -30 -15 -40 -2 -10 -14 -40 -26 -67 -12 -27 -23 -56 -24
-65 -2 -9 -8 -26 -15 -38 -7 -12 -14 -30 -15 -40 -2 -10 -11 -32 -18 -50 l-15
-32 -10 27 c-6 15 -12 32 -13 37 -2 6 -8 19 -14 30 -6 11 -12 28 -14 38 -2 10
-8 28 -15 40 -7 12 -13 31 -15 42 -2 10 -10 30 -18 42 -9 13 -13 23 -10 23 3
0 0 10 -7 23 -6 12 -13 30 -15 40 -2 10 -8 28 -15 40 -7 12 -13 31 -15 42 -2
10 -10 30 -18 42 -9 13 -13 23 -10 23 3 0 0 10 -7 23 -6 12 -13 30 -15 40 -2
10 -8 28 -15 40 -7 12 -13 30 -15 40 -2 10 -8 28 -15 40 -7 12 -13 29 -15 38
-1 9 -12 38 -24 65 -12 27 -24 57 -26 67 -2 10 -9 28 -15 40 -13 24 -15 29
-17 52 -1 12 -20 15 -106 15 l-106 0 13 -22z"/>
<path d="M10671 1945 c1 -233 5 -408 11 -411 5 -3 6 -14 3 -24 -3 -10 -1 -21
5 -25 6 -3 8 -11 4 -16 -3 -5 0 -16 6 -24 7 -8 10 -15 6 -15 -9 0 35 -81 66
-121 31 -41 111 -96 148 -103 14 -2 27 -6 30 -7 3 -1 10 -3 15 -4 6 -2 12 -4
15 -5 11 -5 206 -6 215 -2 5 3 20 7 33 8 50 6 131 56 186 115 l55 59 3 -82 3
-83 93 -3 92 -3 0 450 c0 289 4 452 10 456 6 4 10 57 10 126 l0 119 -105 0
-105 0 0 -375 c1 -207 -2 -380 -6 -386 -3 -6 -3 -13 0 -16 3 -3 1 -12 -5 -20
-6 -7 -8 -13 -5 -13 4 0 -11 -27 -33 -59 -33 -48 -53 -65 -102 -90 -34 -17
-70 -31 -80 -31 -10 0 -20 -3 -22 -7 -6 -10 -120 -9 -136 1 -7 5 -15 5 -18 2
-3 -3 -12 -1 -20 5 -7 6 -13 8 -13 5 0 -4 -20 7 -44 23 -48 34 -77 74 -96 136
-6 22 -14 47 -16 55 -3 8 -5 185 -4 393 l1 377 -101 0 -101 0 2 -405z"/>
</g>
</svg>
